<svg xmlns="http://www.w3.org/2000/svg" viewBox="0 0 128 128">
  <rect width="128" height="128" rx="28.16" fill="#0f172a"/>
  <svg x="0" y="0" width="128" height="128" viewBox="80 100 480 480" preserveAspectRatio="xMidYMid meet">
    <g transform="translate(0,662) scale(0.1,-0.1)">
      <path fill="#f8fafc" d="M1322 5338 c1116 -867 1711 -1332 1725 -1350 6 -7 61 -159 123 -338 62 -179 118 -331 124 -339 8 -11 32 -12 111 -8 306 20 679 177 918 389 87 77 149 162 182 249 73 190 263 268 453 184 l63 -28 72 16 c40 9 200 45 357 81 157 36 292 66 300 66 8 0 -109 -64 -260 -143 -741 -384 -882 -462 -989 -542 -106 -80 -339 -306 -751 -732 -116 -120 -229 -226 -280 -264 -110 -81 -296 -169 -545 -259 -110 -40 -265 -101 -345 -137 -347 -154 -902 -461 -1358 -750 -91 -57 -166 -102 -168 -100 -2 2 12 58 33 125 l36 122 216 129 c707 421 1032 586 1488 756 428 161 516 211 710 402 126 124 337 352 332 358 -2 2 -48 -9 -102 -25 -168 -50 -258 -64 -434 -64 -89 -1 -164 2 -167 5 -3 3 -60 167 -126 365 -67 197 -129 367 -138 377 -9 11 -316 252 -682 536 -860 668 -903 701 -905 698 -1 -1 -5 -103 -9 -227 l-7 -225 164 -155 c388 -367 713 -685 724 -709 19 -40 15 -60 -16 -92 -49 -48 -1 -70 -532 244 -175 103 -322 187 -328 187 -8 0 -11 -77 -11 -258 l0 -259 288 -226 c623 -490 837 -663 840 -680 3 -15 -273 -433 -314 -477 -13 -13 -224 -53 -224 -42 0 1 69 107 153 235 84 128 156 237 160 243 6 11 -216 190 -830 669 l-243 189 0 459 0 458 78 -42 c42 -24 115 -65 161 -91 46 -27 85 -47 87 -45 2 2 -71 72 -161 156 l-165 153 0 449 c0 247 2 449 5 449 2 0 86 -64 187 -142z"/>
      <path fill="#2563eb" d="M4736 4021 c-23 -25 -23 -76 -1 -101 41 -45 125 -12 125 50 0 61 -84 96 -124 51z"/>
    </g>
  </svg>
</svg>
